<svg width="21" height="20" viewBox="0 0 21 20" fill="none" xmlns="http://www.w3.org/2000/svg">
<path d="M17.5299 9.08445V4.67475M19.7348 6.8796H15.3251M13.1202 1V3.9398M14.5901 2.4699H11.6503M17.5943 12.8144C16.1514 13.219 14.6267 13.2323 13.177 12.8528C11.7272 12.4733 10.4045 11.7148 9.34486 10.6551C8.28518 9.59546 7.52666 8.27282 7.14719 6.82304C6.76772 5.37327 6.78098 3.84862 7.18561 2.40566C5.76299 2.80163 4.46893 3.56341 3.43235 4.61514C2.39576 5.66686 1.65282 6.97182 1.27752 8.40003C0.902216 9.82824 0.907659 11.3299 1.2933 12.7553C1.67894 14.1808 2.43133 15.4803 3.47551 16.5245C4.5197 17.5687 5.81923 18.3211 7.24469 18.7067C8.67014 19.0923 10.1718 19.0978 11.6 18.7225C13.0282 18.3472 14.3331 17.6042 15.3849 16.5677C16.4366 15.5311 17.1984 14.237 17.5943 12.8144Z" stroke="#4D4A3D" stroke-width="2" stroke-linecap="round" stroke-linejoin="round"/>
</svg>
